<svg width="29" height="25" fill="none" xmlns="http://www.w3.org/2000/svg"><path d="M10.875 19.767c-1.257 0-2.28 1.04-2.28 2.32 0 1.279 1.023 2.32 2.28 2.32 1.258 0 2.281-1.041 2.281-2.32 0-1.28-1.023-2.32-2.28-2.32zm0 3.344c-.555 0-1.007-.46-1.007-1.024 0-.565.452-1.025 1.007-1.025.556 0 1.008.46 1.008 1.025s-.452 1.024-1.008 1.024zm8.001-3.344c-1.257 0-2.28 1.04-2.28 2.32 0 1.279 1.023 2.32 2.28 2.32 1.258 0 2.281-1.041 2.281-2.32 0-1.28-1.023-2.32-2.28-2.32zm0 3.344c-.555 0-1.007-.46-1.007-1.024 0-.565.452-1.025 1.007-1.025.556 0 1.008.46 1.008 1.025s-.452 1.024-1.008 1.024zm.562-15.557h-9.126a.642.642 0 00-.637.648c0 .357.286.647.637.647h9.126c.352 0 .637-.29.637-.647a.642.642 0 00-.637-.648zm-.497 3.363H10.81a.642.642 0 00-.637.648c0 .357.285.647.637.647h8.132c.352 0 .637-.29.637-.647a.642.642 0 00-.637-.648z" fill="#000"/><path d="M25.65 4.669a1.26 1.26 0 00-.987-.477H4.827l-.401-1.978a1.292 1.292 0 00-.74-.927L.89.054A.633.633 0 00.053.39c-.14.328.008.71.33.852L3.18 2.475l3.08 15.21c.122.6.647 1.035 1.248 1.035h15.257c.351 0 .636-.29.636-.648a.642.642 0 00-.636-.648H7.507l-.375-1.85h15.75c.6 0 1.125-.434 1.247-1.034l1.781-8.792a1.307 1.307 0 00-.26-1.08zm-2.769 9.61H6.871L5.088 5.487h19.574l-1.782 8.792z" fill="#000"/><circle cx="25" cy="4.675" r="4" fill="#F9CADA"/></svg>